<mxfile host="65bd71144e">
    <diagram id="OCSWXYo6FK5xHqnfSUb6" name="Page-1">
        <mxGraphModel dx="685" dy="697" grid="1" gridSize="10" guides="1" tooltips="1" connect="1" arrows="1" fold="1" page="1" pageScale="1" pageWidth="2339" pageHeight="3300" background="#FFFFFF" math="0" shadow="1">
            <root>
                <mxCell id="0"/>
                <mxCell id="1" parent="0"/>
                <mxCell id="16" value="" style="rounded=0;whiteSpace=wrap;html=1;" parent="1" vertex="1">
                    <mxGeometry x="369" y="1040" width="360" height="400" as="geometry"/>
                </mxCell>
                <mxCell id="46" value="&lt;font&gt;ピーク範囲を設定する欄 (from, to)&lt;/font&gt;" style="rounded=1;whiteSpace=wrap;html=1;fontSize=12;fontColor=#000000;verticalAlign=bottom;" parent="1" vertex="1">
                    <mxGeometry x="476" y="1072.5" width="222" height="147.5" as="geometry"/>
                </mxCell>
                <mxCell id="6" value="" style="rounded=0;whiteSpace=wrap;html=1;" parent="1" vertex="1">
                    <mxGeometry x="369" y="80" width="360" height="400" as="geometry"/>
                </mxCell>
                <mxCell id="3" value="Welcome to XRDSpotAnalyzer!" style="text;html=1;strokeColor=none;fillColor=none;align=left;verticalAlign=middle;whiteSpace=wrap;rounded=0;" parent="1" vertex="1">
                    <mxGeometry x="479" y="90" width="220" height="30" as="geometry"/>
                </mxCell>
                <mxCell id="5" value="" style="rounded=0;whiteSpace=wrap;html=1;" parent="1" vertex="1">
                    <mxGeometry x="369" y="80" width="90" height="400" as="geometry"/>
                </mxCell>
                <mxCell id="7" value="" style="rounded=0;whiteSpace=wrap;html=1;" parent="1" vertex="1">
                    <mxGeometry x="369" y="560" width="360" height="400" as="geometry"/>
                </mxCell>
                <mxCell id="8" value="ファイル・パラメータの設定" style="text;html=1;strokeColor=none;fillColor=none;align=left;verticalAlign=middle;whiteSpace=wrap;rounded=0;" parent="1" vertex="1">
                    <mxGeometry x="480" y="570" width="220" height="30" as="geometry"/>
                </mxCell>
                <mxCell id="9" value="" style="rounded=0;whiteSpace=wrap;html=1;" parent="1" vertex="1">
                    <mxGeometry x="369" y="560" width="90" height="400" as="geometry"/>
                </mxCell>
                <mxCell id="10" value="home.py" style="text;html=1;align=center;verticalAlign=middle;resizable=0;points=[];autosize=1;strokeColor=none;fillColor=none;" parent="1" vertex="1">
                    <mxGeometry x="514" y="50" width="70" height="30" as="geometry"/>
                </mxCell>
                <mxCell id="11" value="pages/set-object.py" style="text;html=1;align=center;verticalAlign=middle;resizable=0;points=[];autosize=1;strokeColor=none;fillColor=none;" parent="1" vertex="1">
                    <mxGeometry x="484" y="530" width="130" height="30" as="geometry"/>
                </mxCell>
                <mxCell id="12" value="" style="rounded=0;whiteSpace=wrap;html=1;" parent="1" vertex="1">
                    <mxGeometry x="809" y="560" width="360" height="400" as="geometry"/>
                </mxCell>
                <mxCell id="13" value="Cake処理" style="text;html=1;strokeColor=none;fillColor=none;align=left;verticalAlign=middle;whiteSpace=wrap;rounded=0;" parent="1" vertex="1">
                    <mxGeometry x="919" y="570" width="220" height="30" as="geometry"/>
                </mxCell>
                <mxCell id="14" value="" style="rounded=0;whiteSpace=wrap;html=1;" parent="1" vertex="1">
                    <mxGeometry x="809" y="560" width="90" height="400" as="geometry"/>
                </mxCell>
                <mxCell id="15" value="pages/process-cake.py" style="text;html=1;align=center;verticalAlign=middle;resizable=0;points=[];autosize=1;strokeColor=none;fillColor=none;" parent="1" vertex="1">
                    <mxGeometry x="904" y="530" width="150" height="30" as="geometry"/>
                </mxCell>
                <mxCell id="17" value="ピークの解析 (1)" style="text;html=1;strokeColor=none;fillColor=none;align=left;verticalAlign=middle;whiteSpace=wrap;rounded=0;" parent="1" vertex="1">
                    <mxGeometry x="484" y="1050" width="189" height="30" as="geometry"/>
                </mxCell>
                <mxCell id="18" value="" style="rounded=0;whiteSpace=wrap;html=1;" parent="1" vertex="1">
                    <mxGeometry x="369" y="1040" width="90" height="400" as="geometry"/>
                </mxCell>
                <mxCell id="19" value="pages/peak1(n).py" style="text;html=1;align=center;verticalAlign=middle;resizable=0;points=[];autosize=1;strokeColor=none;fillColor=none;" parent="1" vertex="1">
                    <mxGeometry x="489" y="1010" width="120" height="30" as="geometry"/>
                </mxCell>
                <mxCell id="20" value="nは一番上で決めて、タイトルも含めて&lt;br&gt;これを変えればいいようにしておく" style="shape=callout;whiteSpace=wrap;html=1;perimeter=calloutPerimeter;fillColor=#f0a30a;fontColor=#000000;strokeColor=#BD7000;size=10;position=0.5;" parent="1" vertex="1">
                    <mxGeometry x="468" y="975" width="281" height="50" as="geometry"/>
                </mxCell>
                <mxCell id="21" value="説明書き&lt;br&gt;データの流れの説明のために作った図とかも表示できるといい" style="shape=callout;whiteSpace=wrap;html=1;perimeter=calloutPerimeter;fillColor=#f0a30a;fontColor=#000000;strokeColor=#BD7000;size=10;position=0.5;" parent="1" vertex="1">
                    <mxGeometry x="479" y="140" width="160" height="80" as="geometry"/>
                </mxCell>
                <mxCell id="22" value="どうやってファイルを&lt;br&gt;選択させるか？&lt;br&gt;&lt;br&gt;デバイリングデータ→&lt;br&gt;(.nxsか.hdfがあるとこまで再帰的に欄を作って上げると、ゆるさと便利さを保てる)&lt;br&gt;&lt;br&gt;校正データ→&lt;br&gt;(だいたいLAMBDA or FPDなので、どちらかを選択してそこの一覧から選ぶ)" style="shape=callout;whiteSpace=wrap;html=1;perimeter=calloutPerimeter;fillColor=#f0a30a;fontColor=#000000;strokeColor=#BD7000;size=10;position=0.5;" parent="1" vertex="1">
                    <mxGeometry x="189" y="560" width="161" height="220" as="geometry"/>
                </mxCell>
                <mxCell id="23" value="&lt;font style=&quot;font-size: 12px;&quot;&gt;Home&lt;br&gt;&lt;br&gt;Set file &amp;amp; params&lt;br&gt;&lt;br&gt;Cake&lt;br&gt;&lt;br&gt;(ここで&lt;br&gt;下線が&lt;br&gt;引けるとうれしい)&lt;br&gt;&lt;br&gt;Peak 1&lt;br&gt;&lt;br&gt;...&lt;br&gt;&lt;br&gt;Peak n&lt;br&gt;&lt;/font&gt;" style="text;html=1;strokeColor=none;fillColor=none;align=center;verticalAlign=top;whiteSpace=wrap;rounded=0;" parent="1" vertex="1">
                    <mxGeometry x="384" y="100" width="60" height="360" as="geometry"/>
                </mxCell>
                <mxCell id="24" value="分割数を設定&lt;br&gt;2θ方向(tth_azim),&amp;nbsp;&lt;br&gt;1,000 刻みで+-できるように" style="rounded=1;whiteSpace=wrap;html=1;fontSize=12;" parent="1" vertex="1">
                    <mxGeometry x="479" y="798" width="230" height="60" as="geometry"/>
                </mxCell>
                <mxCell id="25" value="デバイリングデータの設定&lt;br&gt;" style="rounded=1;whiteSpace=wrap;html=1;fontSize=12;" parent="1" vertex="1">
                    <mxGeometry x="479" y="600" width="201" height="80" as="geometry"/>
                </mxCell>
                <mxCell id="26" value="デバイリングデータに対応した&lt;br&gt;poniファイルの設定&lt;br&gt;" style="rounded=1;whiteSpace=wrap;html=1;fontSize=12;" parent="1" vertex="1">
                    <mxGeometry x="479" y="691" width="201" height="90" as="geometry"/>
                </mxCell>
                <mxCell id="27" value="全てのページで&lt;br&gt;共通" style="shape=callout;whiteSpace=wrap;html=1;perimeter=calloutPerimeter;fillColor=#f0a30a;fontColor=#000000;strokeColor=#BD7000;size=10;position=0.5;" parent="1" vertex="1">
                    <mxGeometry x="361" y="29" width="106" height="50" as="geometry"/>
                </mxCell>
                <mxCell id="29" value="&lt;font color=&quot;#000000&quot;&gt;設定したファイルと&lt;br&gt;パラメータを表示&lt;/font&gt;" style="rounded=1;whiteSpace=wrap;html=1;fontSize=12;fontColor=#FFFFFF;" parent="1" vertex="1">
                    <mxGeometry x="919" y="610" width="211" height="40" as="geometry"/>
                </mxCell>
                <mxCell id="30" value="&lt;font&gt;処理開始ボタン&lt;/font&gt;" style="rounded=1;whiteSpace=wrap;html=1;fontSize=12;fontColor=#000000;" parent="1" vertex="1">
                    <mxGeometry x="919" y="670" width="91" height="20" as="geometry"/>
                </mxCell>
                <mxCell id="31" value="&lt;font color=&quot;#ff8000&quot;&gt;（tmpに保存してあるファイル名と整合的であれば、)&lt;/font&gt;&lt;br&gt;&lt;font color=&quot;#000000&quot;&gt;1d patternを描画する&lt;/font&gt;" style="rounded=1;whiteSpace=wrap;html=1;fontSize=12;fontColor=#FFFFFF;" parent="1" vertex="1">
                    <mxGeometry x="919" y="770" width="211" height="60" as="geometry"/>
                </mxCell>
                <mxCell id="32" value="整合しなければst.stop()" style="shape=callout;whiteSpace=wrap;html=1;perimeter=calloutPerimeter;fillColor=#f0a30a;fontColor=#000000;strokeColor=#BD7000;size=10;position=0.5;" parent="1" vertex="1">
                    <mxGeometry x="976" y="710" width="106" height="50" as="geometry"/>
                </mxCell>
                <mxCell id="34" value="横軸を時間にするオプションをつけたい(優先度低い)&lt;br&gt;.nxsでfpsが取得できるならそれをデフォルトにして、&lt;br&gt;.hdfの場合は手動で設定させる" style="shape=callout;whiteSpace=wrap;html=1;perimeter=calloutPerimeter;fillColor=#f0a30a;fontColor=#000000;strokeColor=#BD7000;size=10;position=0.5;" parent="1" vertex="1">
                    <mxGeometry x="189" y="810" width="161" height="140" as="geometry"/>
                </mxCell>
                <mxCell id="41" value="&lt;font color=&quot;#000000&quot;&gt;(default=falseのcheckbox)&lt;br&gt;時間軸を設定する&lt;br&gt;(.jsonに保存して他から&lt;br&gt;参照できるようにしておく)&lt;/font&gt;" style="rounded=1;whiteSpace=wrap;html=1;fontSize=12;fontColor=#FF8000;dashed=1;" parent="1" vertex="1">
                    <mxGeometry x="480" y="880" width="220" height="60" as="geometry"/>
                </mxCell>
                <mxCell id="42" value="" style="endArrow=classic;html=1;fontSize=12;fontColor=#FF8000;exitX=0;exitY=0;exitDx=161;exitDy=65;exitPerimeter=0;entryX=0;entryY=0.5;entryDx=0;entryDy=0;" parent="1" source="34" target="41" edge="1">
                    <mxGeometry width="50" height="50" relative="1" as="geometry">
                        <mxPoint x="450" y="930" as="sourcePoint"/>
                        <mxPoint x="500" y="880" as="targetPoint"/>
                    </mxGeometry>
                </mxCell>
                <mxCell id="43" value="&lt;strike&gt;このページ&lt;br&gt;←にまとめても&lt;br&gt;いいかも？&lt;/strike&gt;&lt;br&gt;一括でのピーク設定・その閲覧もできるので、このページは独立させる" style="shape=callout;whiteSpace=wrap;html=1;perimeter=calloutPerimeter;fillColor=#f0a30a;fontColor=#000000;strokeColor=#BD7000;size=10;position=0.5;" parent="1" vertex="1">
                    <mxGeometry x="783" y="600" width="106" height="140" as="geometry"/>
                </mxCell>
                <mxCell id="44" value="(default=Trueのcheckbox, &lt;br&gt;Noneも選択肢に入れておく)&lt;br&gt;1. 物質(selectbox)&lt;br&gt;2. ミラー指数(1刻みの-10to10)&lt;br&gt;4. 圧力範囲&lt;br&gt;(default=-50-200 GPa)を選択&lt;br&gt;(.jsonに保存しておく)" style="rounded=1;whiteSpace=wrap;html=1;fontSize=12;" parent="1" vertex="1">
                    <mxGeometry x="489" y="1077" width="196" height="110" as="geometry"/>
                </mxCell>
                <mxCell id="45" value="Noneもいれておけば、default=Trueでも &quot;自分で設定&quot; にすぐたどり着ける" style="shape=callout;whiteSpace=wrap;html=1;perimeter=calloutPerimeter;fillColor=#f0a30a;fontColor=#000000;strokeColor=#BD7000;size=10;position=0.5;" parent="1" vertex="1">
                    <mxGeometry x="749" y="1080" width="140" height="105" as="geometry"/>
                </mxCell>
                <mxCell id="47" value="&lt;font&gt;ピーク範囲を設定できる欄 (from, to)&lt;br&gt;(物質から選択する場合、各ピークページで選択する。使い時をちゃんと書いとく)&lt;/font&gt;" style="rounded=1;whiteSpace=wrap;html=1;fontSize=12;fontColor=#000000;verticalAlign=middle;" parent="1" vertex="1">
                    <mxGeometry x="919" y="840" width="231" height="53" as="geometry"/>
                </mxCell>
                <mxCell id="48" value="&lt;font&gt;一括処理(それぞれのピークのazi時系列配列を作成、2回目以降用)&lt;/font&gt;" style="rounded=1;whiteSpace=wrap;html=1;fontSize=12;fontColor=#000000;verticalAlign=middle;" parent="1" vertex="1">
                    <mxGeometry x="918" y="907" width="222" height="40" as="geometry"/>
                </mxCell>
                <mxCell id="49" value="&lt;font&gt;(もし整合的なピークがあれば)&lt;br&gt;回折角度変化、spot変化を描画する&lt;/font&gt;" style="rounded=1;whiteSpace=wrap;html=1;fontSize=12;fontColor=#000000;" parent="1" vertex="1">
                    <mxGeometry x="476" y="1250" width="224" height="50" as="geometry"/>
                </mxCell>
                <mxCell id="50" value="&lt;font&gt;(default=Trueのcheckbox)&lt;br&gt;より詳細な解析&lt;br&gt;azi、frame(or time)を狭めて局所的なspotに注目する&lt;/font&gt;" style="rounded=1;whiteSpace=wrap;html=1;fontSize=12;fontColor=#000000;" parent="1" vertex="1">
                    <mxGeometry x="477" y="1320" width="224" height="80" as="geometry"/>
                </mxCell>
                <mxCell id="51" value="これまだ粗い" style="shape=callout;whiteSpace=wrap;html=1;perimeter=calloutPerimeter;fillColor=#f0a30a;fontColor=#000000;strokeColor=#BD7000;size=10;position=0.5;" parent="1" vertex="1">
                    <mxGeometry x="673" y="1320" width="100" height="35" as="geometry"/>
                </mxCell>
                <mxCell id="52" value="" style="curved=1;endArrow=classic;html=1;fontSize=12;fontColor=#FFFFFF;entryX=1;entryY=0;entryDx=0;entryDy=0;fillColor=#d5e8d4;strokeColor=#82b366;" parent="1" target="18" edge="1">
                    <mxGeometry width="50" height="50" relative="1" as="geometry">
                        <mxPoint x="360" y="290" as="sourcePoint"/>
                        <mxPoint x="294.5" y="400" as="targetPoint"/>
                        <Array as="points">
                            <mxPoint x="80" y="490"/>
                            <mxPoint x="80" y="970"/>
                            <mxPoint x="430" y="1010"/>
                        </Array>
                    </mxGeometry>
                </mxCell>
                <mxCell id="53" value="" style="curved=1;endArrow=classic;html=1;fontSize=12;fontColor=#FFFFFF;entryX=0.306;entryY=-0.002;entryDx=0;entryDy=0;entryPerimeter=0;" parent="1" target="6" edge="1">
                    <mxGeometry width="50" height="50" relative="1" as="geometry">
                        <mxPoint x="360" y="110" as="sourcePoint"/>
                        <mxPoint x="310" y="79" as="targetPoint"/>
                        <Array as="points">
                            <mxPoint x="310" y="100"/>
                            <mxPoint x="330" y="10"/>
                            <mxPoint x="500" y="20"/>
                        </Array>
                    </mxGeometry>
                </mxCell>
                <mxCell id="54" value="" style="curved=1;endArrow=classic;html=1;fontSize=12;fontColor=#FFFFFF;entryX=0.25;entryY=0;entryDx=0;entryDy=0;fillColor=#e3c800;strokeColor=#B09500;" parent="1" target="7" edge="1">
                    <mxGeometry width="50" height="50" relative="1" as="geometry">
                        <mxPoint x="360" y="150" as="sourcePoint"/>
                        <mxPoint x="280" y="390" as="targetPoint"/>
                        <Array as="points">
                            <mxPoint x="310" y="160"/>
                            <mxPoint x="310" y="350"/>
                            <mxPoint x="340" y="520"/>
                        </Array>
                    </mxGeometry>
                </mxCell>
                <mxCell id="55" value="" style="curved=1;endArrow=classic;html=1;fontSize=12;fontColor=#FFFFFF;entryX=1;entryY=0;entryDx=0;entryDy=0;strokeColor=#B20000;fillColor=#e51400;" parent="1" target="14" edge="1">
                    <mxGeometry width="50" height="50" relative="1" as="geometry">
                        <mxPoint x="360" y="190" as="sourcePoint"/>
                        <mxPoint x="390" y="520" as="targetPoint"/>
                        <Array as="points">
                            <mxPoint x="340" y="280"/>
                            <mxPoint x="330" y="420"/>
                            <mxPoint x="390" y="540"/>
                            <mxPoint x="860" y="530"/>
                        </Array>
                    </mxGeometry>
                </mxCell>
                <mxCell id="56" value="cake_and_pattern.hdf&lt;br&gt;&lt;div style=&quot;&quot;&gt;&lt;ul&gt;&lt;li&gt;entry/&lt;/li&gt;&lt;ul&gt;&lt;li&gt;pattern&lt;/li&gt;&lt;li&gt;cake&lt;/li&gt;&lt;li&gt;peaks/&lt;/li&gt;&lt;ul&gt;&lt;li&gt;peak1&lt;/li&gt;&lt;li&gt;peak2&lt;/li&gt;&lt;li&gt;peak3&lt;/li&gt;&lt;li&gt;peak4&lt;/li&gt;&lt;li&gt;peak5&lt;/li&gt;&lt;/ul&gt;&lt;/ul&gt;&lt;/ul&gt;&lt;/div&gt;" style="shape=note;whiteSpace=wrap;html=1;backgroundOutline=1;darkOpacity=0.05;align=left;verticalAlign=top;fillColor=#d5e8d4;strokeColor=#82b366;" vertex="1" parent="1">
                    <mxGeometry x="773" y="120" width="220" height="260" as="geometry"/>
                </mxCell>
                <mxCell id="57" value="params.json&lt;br&gt;&lt;ul&gt;&lt;li&gt;base_path&lt;/li&gt;&lt;li&gt;XRD_data_path&lt;/li&gt;&lt;li&gt;poni_path&lt;/li&gt;&lt;li&gt;npt_tth&lt;/li&gt;&lt;li&gt;npt_azi&lt;/li&gt;&lt;li&gt;axis_is_time&lt;/li&gt;&lt;li&gt;peak1: {&lt;/li&gt;&lt;ul&gt;&lt;li&gt;material&lt;/li&gt;&lt;li&gt;hkl&lt;/li&gt;&lt;li&gt;pressure&lt;/li&gt;&lt;/ul&gt;&lt;li&gt;}&lt;/li&gt;&lt;li&gt;peak2: {} ...&lt;/li&gt;&lt;/ul&gt;" style="shape=note;whiteSpace=wrap;html=1;backgroundOutline=1;darkOpacity=0.05;align=left;verticalAlign=top;fillColor=#d5e8d4;strokeColor=#82b366;" vertex="1" parent="1">
                    <mxGeometry x="1027" y="120" width="190" height="350" as="geometry"/>
                </mxCell>
            </root>
        </mxGraphModel>
    </diagram>
</mxfile>